<?xml version="1.0" encoding="UTF-8" standalone="no"?>
<!DOCTYPE svg PUBLIC "-//W3C//DTD SVG 1.1//EN"
 "http://www.w3.org/Graphics/SVG/1.1/DTD/svg11.dtd">
<!-- Generated by graphviz version 2.40.1 (20161225.0304)
 -->
<!-- Title: dependencies Pages: 1 -->
<svg width="2107pt" height="284pt"
 viewBox="0.00 0.00 2107.00 284.00" xmlns="http://www.w3.org/2000/svg" xmlns:xlink="http://www.w3.org/1999/xlink">
<g id="graph0" class="graph" transform="scale(1 1) rotate(0) translate(4 280)">
<title>dependencies</title>
<polygon fill="#ffffff" stroke="transparent" points="-4,4 -4,-280 2103,-280 2103,4 -4,4"/>
<text text-anchor="start" x="1028.5091" y="-42.4" font-family="sans-serif" font-weight="bold" font-size="14.00" fill="#000000">Legend</text>
<polygon fill="#ffffb3" stroke="transparent" points="815.5,-10 815.5,-30 835.5,-30 835.5,-10 815.5,-10"/>
<text text-anchor="start" x="839.129" y="-15.4" font-family="sans-serif" font-size="14.00" fill="#000000"> &#160;Declarations</text>
<polygon fill="#8dd3c7" stroke="transparent" points="928.5,-10 928.5,-30 948.5,-30 948.5,-10 928.5,-10"/>
<text text-anchor="start" x="952.2251" y="-15.4" font-family="sans-serif" font-size="14.00" fill="#000000"> &#160;Module</text>
<polygon fill="#80b1d3" stroke="transparent" points="1014.5,-10 1014.5,-30 1034.5,-30 1034.5,-10 1014.5,-10"/>
<text text-anchor="start" x="1038.2812" y="-15.4" font-family="sans-serif" font-size="14.00" fill="#000000"> &#160;Bootstrap</text>
<polygon fill="#fdb462" stroke="transparent" points="1111.5,-10 1111.5,-30 1131.5,-30 1131.5,-10 1111.5,-10"/>
<text text-anchor="start" x="1135.1732" y="-15.4" font-family="sans-serif" font-size="14.00" fill="#000000"> &#160;Providers</text>
<polygon fill="#fb8072" stroke="transparent" points="1207.5,-10 1207.5,-30 1227.5,-30 1227.5,-10 1207.5,-10"/>
<text text-anchor="start" x="1231.2258" y="-15.4" font-family="sans-serif" font-size="14.00" fill="#000000"> &#160;Exports</text>
<g id="clust1" class="cluster">
<title>cluster_AppModule</title>
<polygon fill="none" stroke="#000000" stroke-dasharray="1,5" points="8,-70 8,-268 733,-268 733,-70 8,-70"/>
</g>
<g id="clust2" class="cluster">
<title>cluster_AppModule_declarations</title>
<polygon fill="none" stroke="#000000" points="168,-78 168,-130 725,-130 725,-78 168,-78"/>
</g>
<g id="clust7" class="cluster">
<title>cluster_AppModule_imports</title>
<polygon fill="none" stroke="#000000" points="16,-78 16,-130 160,-130 160,-78 16,-78"/>
</g>
<g id="clust9" class="cluster">
<title>cluster_AppModule_bootstrap</title>
<polygon fill="none" stroke="#000000" points="301,-208 301,-260 425,-260 425,-208 301,-208"/>
</g>
<g id="clust17" class="cluster">
<title>cluster_ModalAddEditPageModule</title>
<polygon fill="none" stroke="#000000" stroke-dasharray="1,5" points="741,-143 741,-195 927,-195 927,-143 741,-143"/>
</g>
<g id="clust24" class="cluster">
<title>cluster_ModalEventosPageModule</title>
<polygon fill="none" stroke="#000000" stroke-dasharray="1,5" points="935,-143 935,-195 1119,-195 1119,-143 935,-143"/>
</g>
<g id="clust31" class="cluster">
<title>cluster_ModalSoloAddPageModule</title>
<polygon fill="none" stroke="#000000" stroke-dasharray="1,5" points="1127,-143 1127,-195 1317,-195 1317,-143 1127,-143"/>
</g>
<g id="clust38" class="cluster">
<title>cluster_Tab3PageModule</title>
<polygon fill="none" stroke="#000000" stroke-dasharray="1,5" points="1325,-70 1325,-195 1457,-195 1457,-70 1325,-70"/>
</g>
<g id="clust39" class="cluster">
<title>cluster_Tab3PageModule_declarations</title>
<polygon fill="none" stroke="#000000" points="1347,-78 1347,-130 1435,-130 1435,-78 1347,-78"/>
</g>
<g id="clust45" class="cluster">
<title>cluster_TabInicioPageModule</title>
<polygon fill="none" stroke="#000000" stroke-dasharray="1,5" points="1465,-70 1465,-195 1623,-195 1623,-70 1465,-70"/>
</g>
<g id="clust46" class="cluster">
<title>cluster_TabInicioPageModule_declarations</title>
<polygon fill="none" stroke="#000000" points="1487,-78 1487,-130 1601,-130 1601,-78 1487,-78"/>
</g>
<g id="clust52" class="cluster">
<title>cluster_TabListadoPageModule</title>
<polygon fill="none" stroke="#000000" stroke-dasharray="1,5" points="1631,-70 1631,-195 1797,-195 1797,-70 1631,-70"/>
</g>
<g id="clust53" class="cluster">
<title>cluster_TabListadoPageModule_declarations</title>
<polygon fill="none" stroke="#000000" points="1653,-78 1653,-130 1775,-130 1775,-78 1653,-78"/>
</g>
<g id="clust59" class="cluster">
<title>cluster_TabsPageModule</title>
<polygon fill="none" stroke="#000000" stroke-dasharray="1,5" points="1805,-70 1805,-195 2091,-195 2091,-70 1805,-70"/>
</g>
<g id="clust60" class="cluster">
<title>cluster_TabsPageModule_declarations</title>
<polygon fill="none" stroke="#000000" points="1997,-78 1997,-130 2083,-130 2083,-78 1997,-78"/>
</g>
<g id="clust62" class="cluster">
<title>cluster_TabsPageModule_imports</title>
<polygon fill="none" stroke="#000000" points="1813,-78 1813,-130 1989,-130 1989,-78 1813,-78"/>
</g>
<!-- AppComponent -->
<g id="node1" class="node">
<title>AppComponent</title>
<polygon fill="#ffffb3" stroke="#000000" points="281.9399,-122 176.0601,-122 176.0601,-86 281.9399,-86 281.9399,-122"/>
<text text-anchor="middle" x="229" y="-99.8" font-family="Times,serif" font-size="14.00" fill="#000000">AppComponent</text>
</g>
<!-- AppModule -->
<g id="node5" class="node">
<title>AppModule</title>
<polygon fill="#8dd3c7" stroke="#000000" points="404.6571,-187 401.6571,-191 380.6571,-191 377.6571,-187 321.3429,-187 321.3429,-151 404.6571,-151 404.6571,-187"/>
<text text-anchor="middle" x="363" y="-164.8" font-family="Times,serif" font-size="14.00" fill="#000000">AppModule</text>
</g>
<!-- AppComponent&#45;&gt;AppModule -->
<g id="edge1" class="edge">
<title>AppComponent&#45;&gt;AppModule</title>
<path fill="none" stroke="#000000" d="M229,-122.0225C229,-139.3734 229,-163 229,-163 229,-163 311.3361,-163 311.3361,-163"/>
<polygon fill="#000000" stroke="#000000" points="311.3361,-166.5001 321.3361,-163 311.3361,-159.5001 311.3361,-166.5001"/>
</g>
<!-- ModalAddEditPage -->
<g id="node2" class="node">
<title>ModalAddEditPage</title>
<polygon fill="#ffffb3" stroke="#000000" points="426.7022,-122 299.2978,-122 299.2978,-86 426.7022,-86 426.7022,-122"/>
<text text-anchor="middle" x="363" y="-99.8" font-family="Times,serif" font-size="14.00" fill="#000000">ModalAddEditPage</text>
</g>
<!-- ModalAddEditPage&#45;&gt;AppModule -->
<g id="edge2" class="edge">
<title>ModalAddEditPage&#45;&gt;AppModule</title>
<path fill="none" stroke="#000000" d="M363,-122.1061C363,-122.1061 363,-140.991 363,-140.991"/>
<polygon fill="#000000" stroke="#000000" points="359.5001,-140.9909 363,-150.991 366.5001,-140.991 359.5001,-140.9909"/>
</g>
<!-- ModalAddEditPageModule -->
<g id="node8" class="node">
<title>ModalAddEditPageModule</title>
<polygon fill="#8dd3c7" stroke="#000000" points="919.252,-187 916.252,-191 895.252,-191 892.252,-187 748.748,-187 748.748,-151 919.252,-151 919.252,-187"/>
<text text-anchor="middle" x="834" y="-164.8" font-family="Times,serif" font-size="14.00" fill="#000000">ModalAddEditPageModule</text>
</g>
<!-- ModalAddEditPage&#45;&gt;ModalAddEditPageModule -->
<g id="edge7" class="edge">
<title>ModalAddEditPage&#45;&gt;ModalAddEditPageModule</title>
<path fill="none" stroke="#000000" d="M422.0353,-122.027C422.0353,-138.3976 422.0353,-160 422.0353,-160 422.0353,-160 738.6406,-160 738.6406,-160"/>
<polygon fill="#000000" stroke="#000000" points="738.6407,-163.5001 748.6406,-160 738.6406,-156.5001 738.6407,-163.5001"/>
</g>
<!-- ModalEventosPage -->
<g id="node3" class="node">
<title>ModalEventosPage</title>
<polygon fill="#ffffb3" stroke="#000000" points="569.3641,-122 444.6359,-122 444.6359,-86 569.3641,-86 569.3641,-122"/>
<text text-anchor="middle" x="507" y="-99.8" font-family="Times,serif" font-size="14.00" fill="#000000">ModalEventosPage</text>
</g>
<!-- ModalEventosPage&#45;&gt;AppModule -->
<g id="edge3" class="edge">
<title>ModalEventosPage&#45;&gt;AppModule</title>
<path fill="none" stroke="#000000" d="M527.8107,-122.1061C527.8107,-141.3391 527.8107,-169 527.8107,-169 527.8107,-169 415.0151,-169 415.0151,-169"/>
<polygon fill="#000000" stroke="#000000" points="415.0152,-165.5001 405.0151,-169 415.0151,-172.5001 415.0152,-165.5001"/>
</g>
<!-- ModalEventosPageModule -->
<g id="node9" class="node">
<title>ModalEventosPageModule</title>
<polygon fill="#8dd3c7" stroke="#000000" points="1111.4143,-187 1108.4143,-191 1087.4143,-191 1084.4143,-187 942.5857,-187 942.5857,-151 1111.4143,-151 1111.4143,-187"/>
<text text-anchor="middle" x="1027" y="-164.8" font-family="Times,serif" font-size="14.00" fill="#000000">ModalEventosPageModule</text>
</g>
<!-- ModalEventosPage&#45;&gt;ModalEventosPageModule -->
<g id="edge8" class="edge">
<title>ModalEventosPage&#45;&gt;ModalEventosPageModule</title>
<path fill="none" stroke="#000000" d="M486.1893,-122.0449C486.1893,-129.749 486.1893,-137 486.1893,-137 486.1893,-137 1027,-137 1027,-137 1027,-137 1027,-140.7566 1027,-140.7566"/>
<polygon fill="#000000" stroke="#000000" points="1023.5001,-140.7566 1027,-150.7566 1030.5001,-140.7566 1023.5001,-140.7566"/>
</g>
<!-- ModalSoloAddPage -->
<g id="node4" class="node">
<title>ModalSoloAddPage</title>
<polygon fill="#ffffb3" stroke="#000000" points="716.5422,-122 587.4578,-122 587.4578,-86 716.5422,-86 716.5422,-122"/>
<text text-anchor="middle" x="652" y="-99.8" font-family="Times,serif" font-size="14.00" fill="#000000">ModalSoloAddPage</text>
</g>
<!-- ModalSoloAddPage&#45;&gt;AppModule -->
<g id="edge4" class="edge">
<title>ModalSoloAddPage&#45;&gt;AppModule</title>
<path fill="none" stroke="#000000" d="M652,-122.2921C652,-144.2057 652,-178 652,-178 652,-178 414.7144,-178 414.7144,-178"/>
<polygon fill="#000000" stroke="#000000" points="414.7145,-174.5001 404.7144,-178 414.7144,-181.5001 414.7145,-174.5001"/>
</g>
<!-- ModalSoloAddPageModule -->
<g id="node10" class="node">
<title>ModalSoloAddPageModule</title>
<polygon fill="#8dd3c7" stroke="#000000" points="1308.5912,-187 1305.5912,-191 1284.5912,-191 1281.5912,-187 1135.4088,-187 1135.4088,-151 1308.5912,-151 1308.5912,-187"/>
<text text-anchor="middle" x="1222" y="-164.8" font-family="Times,serif" font-size="14.00" fill="#000000">ModalSoloAddPageModule</text>
</g>
<!-- ModalSoloAddPage&#45;&gt;ModalSoloAddPageModule -->
<g id="edge9" class="edge">
<title>ModalSoloAddPage&#45;&gt;ModalSoloAddPageModule</title>
<path fill="none" stroke="#000000" d="M716.5545,-104C865.7879,-104 1222,-104 1222,-104 1222,-104 1222,-140.8939 1222,-140.8939"/>
<polygon fill="#000000" stroke="#000000" points="1218.5001,-140.8938 1222,-150.8939 1225.5001,-140.8939 1218.5001,-140.8938"/>
</g>
<!-- AppComponent  -->
<g id="node7" class="node">
<title>AppComponent </title>
<polygon fill="#80b1d3" stroke="#000000" points="417.439,-252 308.561,-252 308.561,-216 417.439,-216 417.439,-252"/>
<text text-anchor="middle" x="363" y="-229.8" font-family="Times,serif" font-size="14.00" fill="#000000">AppComponent </text>
</g>
<!-- AppModule&#45;&gt;AppComponent  -->
<g id="edge6" class="edge">
<title>AppModule&#45;&gt;AppComponent </title>
<path fill="none" stroke="#000000" stroke-dasharray="1,5" d="M363,-187.1061C363,-187.1061 363,-205.991 363,-205.991"/>
<polygon fill="#000000" stroke="#000000" points="359.5001,-205.9909 363,-215.991 366.5001,-205.991 359.5001,-205.9909"/>
</g>
<!-- AppRoutingModule -->
<g id="node6" class="node">
<title>AppRoutingModule</title>
<polygon fill="#8dd3c7" stroke="#000000" points="152.2744,-122 149.2744,-126 128.2744,-126 125.2744,-122 23.7256,-122 23.7256,-86 152.2744,-86 152.2744,-122"/>
<text text-anchor="middle" x="88" y="-99.8" font-family="Times,serif" font-size="14.00" fill="#000000">AppRoutingModule</text>
</g>
<!-- AppRoutingModule&#45;&gt;AppModule -->
<g id="edge5" class="edge">
<title>AppRoutingModule&#45;&gt;AppModule</title>
<path fill="none" stroke="#000000" d="M88,-122.2843C88,-143.3211 88,-175 88,-175 88,-175 311.2334,-175 311.2334,-175"/>
<polygon fill="#000000" stroke="#000000" points="311.2335,-178.5001 321.2334,-175 311.2334,-171.5001 311.2335,-178.5001"/>
</g>
<!-- Tab3Page -->
<g id="node11" class="node">
<title>Tab3Page</title>
<polygon fill="#ffffb3" stroke="#000000" points="1426.979,-122 1355.021,-122 1355.021,-86 1426.979,-86 1426.979,-122"/>
<text text-anchor="middle" x="1391" y="-99.8" font-family="Times,serif" font-size="14.00" fill="#000000">Tab3Page</text>
</g>
<!-- Tab3PageModule -->
<g id="node12" class="node">
<title>Tab3PageModule</title>
<polygon fill="#8dd3c7" stroke="#000000" points="1448.5298,-187 1445.5298,-191 1424.5298,-191 1421.5298,-187 1333.4702,-187 1333.4702,-151 1448.5298,-151 1448.5298,-187"/>
<text text-anchor="middle" x="1391" y="-164.8" font-family="Times,serif" font-size="14.00" fill="#000000">Tab3PageModule</text>
</g>
<!-- Tab3Page&#45;&gt;Tab3PageModule -->
<g id="edge10" class="edge">
<title>Tab3Page&#45;&gt;Tab3PageModule</title>
<path fill="none" stroke="#000000" d="M1391,-122.1061C1391,-122.1061 1391,-140.991 1391,-140.991"/>
<polygon fill="#000000" stroke="#000000" points="1387.5001,-140.9909 1391,-150.991 1394.5001,-140.991 1387.5001,-140.9909"/>
</g>
<!-- TabInicioPage -->
<g id="node13" class="node">
<title>TabInicioPage</title>
<polygon fill="#ffffb3" stroke="#000000" points="1592.6361,-122 1495.3639,-122 1495.3639,-86 1592.6361,-86 1592.6361,-122"/>
<text text-anchor="middle" x="1544" y="-99.8" font-family="Times,serif" font-size="14.00" fill="#000000">TabInicioPage</text>
</g>
<!-- TabInicioPageModule -->
<g id="node14" class="node">
<title>TabInicioPageModule</title>
<polygon fill="#8dd3c7" stroke="#000000" points="1614.6853,-187 1611.6853,-191 1590.6853,-191 1587.6853,-187 1473.3147,-187 1473.3147,-151 1614.6853,-151 1614.6853,-187"/>
<text text-anchor="middle" x="1544" y="-164.8" font-family="Times,serif" font-size="14.00" fill="#000000">TabInicioPageModule</text>
</g>
<!-- TabInicioPage&#45;&gt;TabInicioPageModule -->
<g id="edge11" class="edge">
<title>TabInicioPage&#45;&gt;TabInicioPageModule</title>
<path fill="none" stroke="#000000" d="M1544,-122.1061C1544,-122.1061 1544,-140.991 1544,-140.991"/>
<polygon fill="#000000" stroke="#000000" points="1540.5001,-140.9909 1544,-150.991 1547.5001,-140.991 1540.5001,-140.9909"/>
</g>
<!-- TabListadoPage -->
<g id="node15" class="node">
<title>TabListadoPage</title>
<polygon fill="#ffffb3" stroke="#000000" points="1767.472,-122 1660.528,-122 1660.528,-86 1767.472,-86 1767.472,-122"/>
<text text-anchor="middle" x="1714" y="-99.8" font-family="Times,serif" font-size="14.00" fill="#000000">TabListadoPage</text>
</g>
<!-- TabListadoPageModule -->
<g id="node16" class="node">
<title>TabListadoPageModule</title>
<polygon fill="#8dd3c7" stroke="#000000" points="1789.0226,-187 1786.0226,-191 1765.0226,-191 1762.0226,-187 1638.9774,-187 1638.9774,-151 1789.0226,-151 1789.0226,-187"/>
<text text-anchor="middle" x="1714" y="-164.8" font-family="Times,serif" font-size="14.00" fill="#000000">TabListadoPageModule</text>
</g>
<!-- TabListadoPage&#45;&gt;TabListadoPageModule -->
<g id="edge12" class="edge">
<title>TabListadoPage&#45;&gt;TabListadoPageModule</title>
<path fill="none" stroke="#000000" d="M1714,-122.1061C1714,-122.1061 1714,-140.991 1714,-140.991"/>
<polygon fill="#000000" stroke="#000000" points="1710.5001,-140.9909 1714,-150.991 1717.5001,-140.991 1710.5001,-140.9909"/>
</g>
<!-- TabsPage -->
<g id="node17" class="node">
<title>TabsPage</title>
<polygon fill="#ffffb3" stroke="#000000" points="2075.4249,-122 2004.5751,-122 2004.5751,-86 2075.4249,-86 2075.4249,-122"/>
<text text-anchor="middle" x="2040" y="-99.8" font-family="Times,serif" font-size="14.00" fill="#000000">TabsPage</text>
</g>
<!-- TabsPageModule -->
<g id="node18" class="node">
<title>TabsPageModule</title>
<polygon fill="#8dd3c7" stroke="#000000" points="2019.9734,-187 2016.9734,-191 1995.9734,-191 1992.9734,-187 1906.0266,-187 1906.0266,-151 2019.9734,-151 2019.9734,-187"/>
<text text-anchor="middle" x="1963" y="-164.8" font-family="Times,serif" font-size="14.00" fill="#000000">TabsPageModule</text>
</g>
<!-- TabsPage&#45;&gt;TabsPageModule -->
<g id="edge13" class="edge">
<title>TabsPage&#45;&gt;TabsPageModule</title>
<path fill="none" stroke="#000000" d="M2012.3875,-122.1061C2012.3875,-122.1061 2012.3875,-140.991 2012.3875,-140.991"/>
<polygon fill="#000000" stroke="#000000" points="2008.8875,-140.9909 2012.3875,-150.991 2015.8875,-140.991 2008.8875,-140.9909"/>
</g>
<!-- TabsPageRoutingModule -->
<g id="node19" class="node">
<title>TabsPageRoutingModule</title>
<polygon fill="#8dd3c7" stroke="#000000" points="1980.5912,-122 1977.5912,-126 1956.5912,-126 1953.5912,-122 1821.4088,-122 1821.4088,-86 1980.5912,-86 1980.5912,-122"/>
<text text-anchor="middle" x="1901" y="-99.8" font-family="Times,serif" font-size="14.00" fill="#000000">TabsPageRoutingModule</text>
</g>
<!-- TabsPageRoutingModule&#45;&gt;TabsPageModule -->
<g id="edge14" class="edge">
<title>TabsPageRoutingModule&#45;&gt;TabsPageModule</title>
<path fill="none" stroke="#000000" d="M1943.2795,-122.1061C1943.2795,-122.1061 1943.2795,-140.991 1943.2795,-140.991"/>
<polygon fill="#000000" stroke="#000000" points="1939.7795,-140.9909 1943.2795,-150.991 1946.7795,-140.991 1939.7795,-140.9909"/>
</g>
</g>
</svg>
