<?xml version="1.0" encoding="UTF-8" standalone="no"?>
<!DOCTYPE svg PUBLIC "-//W3C//DTD SVG 1.1//EN"
 "http://www.w3.org/Graphics/SVG/1.1/DTD/svg11.dtd">
<!-- Generated by graphviz version 2.40.1 (20161225.0304)
 -->
<!-- Title: dependencies Pages: 1 -->
<svg width="749pt" height="284pt"
 viewBox="0.00 0.00 749.00 284.00" xmlns="http://www.w3.org/2000/svg" xmlns:xlink="http://www.w3.org/1999/xlink">
<g id="graph0" class="graph" transform="scale(1 1) rotate(0) translate(4 280)">
<title>dependencies</title>
<polygon fill="#ffffff" stroke="transparent" points="-4,4 -4,-280 745,-280 745,4 -4,4"/>
<text text-anchor="start" x="349.5091" y="-42.4" font-family="sans-serif" font-weight="bold" font-size="14.00" fill="#000000">Legend</text>
<polygon fill="#ffffb3" stroke="transparent" points="136.5,-10 136.5,-30 156.5,-30 156.5,-10 136.5,-10"/>
<text text-anchor="start" x="160.129" y="-15.4" font-family="sans-serif" font-size="14.00" fill="#000000"> &#160;Declarations</text>
<polygon fill="#8dd3c7" stroke="transparent" points="249.5,-10 249.5,-30 269.5,-30 269.5,-10 249.5,-10"/>
<text text-anchor="start" x="273.2251" y="-15.4" font-family="sans-serif" font-size="14.00" fill="#000000"> &#160;Module</text>
<polygon fill="#80b1d3" stroke="transparent" points="335.5,-10 335.5,-30 355.5,-30 355.5,-10 335.5,-10"/>
<text text-anchor="start" x="359.2812" y="-15.4" font-family="sans-serif" font-size="14.00" fill="#000000"> &#160;Bootstrap</text>
<polygon fill="#fdb462" stroke="transparent" points="432.5,-10 432.5,-30 452.5,-30 452.5,-10 432.5,-10"/>
<text text-anchor="start" x="456.1732" y="-15.4" font-family="sans-serif" font-size="14.00" fill="#000000"> &#160;Providers</text>
<polygon fill="#fb8072" stroke="transparent" points="528.5,-10 528.5,-30 548.5,-30 548.5,-10 528.5,-10"/>
<text text-anchor="start" x="552.2258" y="-15.4" font-family="sans-serif" font-size="14.00" fill="#000000"> &#160;Exports</text>
<g id="clust1" class="cluster">
<title>cluster_AppModule</title>
<polygon fill="none" stroke="#000000" stroke-dasharray="1,5" points="8,-70 8,-268 733,-268 733,-70 8,-70"/>
</g>
<g id="clust2" class="cluster">
<title>cluster_AppModule_declarations</title>
<polygon fill="none" stroke="#000000" points="168,-78 168,-130 725,-130 725,-78 168,-78"/>
</g>
<g id="clust7" class="cluster">
<title>cluster_AppModule_imports</title>
<polygon fill="none" stroke="#000000" points="16,-78 16,-130 160,-130 160,-78 16,-78"/>
</g>
<g id="clust9" class="cluster">
<title>cluster_AppModule_bootstrap</title>
<polygon fill="none" stroke="#000000" points="324,-208 324,-260 448,-260 448,-208 324,-208"/>
</g>
<!-- AppComponent -->
<g id="node1" class="node">
<title>AppComponent</title>
<polygon fill="#ffffb3" stroke="#000000" points="716.9399,-122 611.0601,-122 611.0601,-86 716.9399,-86 716.9399,-122"/>
<text text-anchor="middle" x="664" y="-99.8" font-family="Times,serif" font-size="14.00" fill="#000000">AppComponent</text>
</g>
<!-- AppModule -->
<g id="node5" class="node">
<title>AppModule</title>
<polygon fill="#8dd3c7" stroke="#000000" points="427.6571,-187 424.6571,-191 403.6571,-191 400.6571,-187 344.3429,-187 344.3429,-151 427.6571,-151 427.6571,-187"/>
<text text-anchor="middle" x="386" y="-164.8" font-family="Times,serif" font-size="14.00" fill="#000000">AppModule</text>
</g>
<!-- AppComponent&#45;&gt;AppModule -->
<g id="edge1" class="edge">
<title>AppComponent&#45;&gt;AppModule</title>
<path fill="none" stroke="#000000" d="M664,-122.2843C664,-143.3211 664,-175 664,-175 664,-175 437.9204,-175 437.9204,-175"/>
<polygon fill="#000000" stroke="#000000" points="437.9204,-171.5001 427.9204,-175 437.9204,-178.5001 437.9204,-171.5001"/>
</g>
<!-- ModalAddEditPage -->
<g id="node2" class="node">
<title>ModalAddEditPage</title>
<polygon fill="#ffffb3" stroke="#000000" points="593.7022,-122 466.2978,-122 466.2978,-86 593.7022,-86 593.7022,-122"/>
<text text-anchor="middle" x="530" y="-99.8" font-family="Times,serif" font-size="14.00" fill="#000000">ModalAddEditPage</text>
</g>
<!-- ModalAddEditPage&#45;&gt;AppModule -->
<g id="edge2" class="edge">
<title>ModalAddEditPage&#45;&gt;AppModule</title>
<path fill="none" stroke="#000000" d="M530,-122.0225C530,-139.3734 530,-163 530,-163 530,-163 438.0379,-163 438.0379,-163"/>
<polygon fill="#000000" stroke="#000000" points="438.0379,-159.5001 428.0379,-163 438.0378,-166.5001 438.0379,-159.5001"/>
</g>
<!-- ModalEventosPage -->
<g id="node3" class="node">
<title>ModalEventosPage</title>
<polygon fill="#ffffb3" stroke="#000000" points="448.3641,-122 323.6359,-122 323.6359,-86 448.3641,-86 448.3641,-122"/>
<text text-anchor="middle" x="386" y="-99.8" font-family="Times,serif" font-size="14.00" fill="#000000">ModalEventosPage</text>
</g>
<!-- ModalEventosPage&#45;&gt;AppModule -->
<g id="edge3" class="edge">
<title>ModalEventosPage&#45;&gt;AppModule</title>
<path fill="none" stroke="#000000" d="M386,-122.1061C386,-122.1061 386,-140.991 386,-140.991"/>
<polygon fill="#000000" stroke="#000000" points="382.5001,-140.9909 386,-150.991 389.5001,-140.991 382.5001,-140.9909"/>
</g>
<!-- ModalSoloAddPage -->
<g id="node4" class="node">
<title>ModalSoloAddPage</title>
<polygon fill="#ffffb3" stroke="#000000" points="305.5422,-122 176.4578,-122 176.4578,-86 305.5422,-86 305.5422,-122"/>
<text text-anchor="middle" x="241" y="-99.8" font-family="Times,serif" font-size="14.00" fill="#000000">ModalSoloAddPage</text>
</g>
<!-- ModalSoloAddPage&#45;&gt;AppModule -->
<g id="edge4" class="edge">
<title>ModalSoloAddPage&#45;&gt;AppModule</title>
<path fill="none" stroke="#000000" d="M241,-122.0225C241,-139.3734 241,-163 241,-163 241,-163 334.06,-163 334.06,-163"/>
<polygon fill="#000000" stroke="#000000" points="334.06,-166.5001 344.06,-163 334.06,-159.5001 334.06,-166.5001"/>
</g>
<!-- AppComponent  -->
<g id="node7" class="node">
<title>AppComponent </title>
<polygon fill="#80b1d3" stroke="#000000" points="440.439,-252 331.561,-252 331.561,-216 440.439,-216 440.439,-252"/>
<text text-anchor="middle" x="386" y="-229.8" font-family="Times,serif" font-size="14.00" fill="#000000">AppComponent </text>
</g>
<!-- AppModule&#45;&gt;AppComponent  -->
<g id="edge6" class="edge">
<title>AppModule&#45;&gt;AppComponent </title>
<path fill="none" stroke="#000000" stroke-dasharray="1,5" d="M386,-187.1061C386,-187.1061 386,-205.991 386,-205.991"/>
<polygon fill="#000000" stroke="#000000" points="382.5001,-205.9909 386,-215.991 389.5001,-205.991 382.5001,-205.9909"/>
</g>
<!-- AppRoutingModule -->
<g id="node6" class="node">
<title>AppRoutingModule</title>
<polygon fill="#8dd3c7" stroke="#000000" points="152.2744,-122 149.2744,-126 128.2744,-126 125.2744,-122 23.7256,-122 23.7256,-86 152.2744,-86 152.2744,-122"/>
<text text-anchor="middle" x="88" y="-99.8" font-family="Times,serif" font-size="14.00" fill="#000000">AppRoutingModule</text>
</g>
<!-- AppRoutingModule&#45;&gt;AppModule -->
<g id="edge5" class="edge">
<title>AppRoutingModule&#45;&gt;AppModule</title>
<path fill="none" stroke="#000000" d="M88,-122.2843C88,-143.3211 88,-175 88,-175 88,-175 334.2506,-175 334.2506,-175"/>
<polygon fill="#000000" stroke="#000000" points="334.2506,-178.5001 344.2506,-175 334.2506,-171.5001 334.2506,-178.5001"/>
</g>
</g>
</svg>
